<svg xmlns="http://www.w3.org/2000/svg" viewBox="0 0 200 140">
  <!-- うで 8 本: 短めに丸く -->
  <g fill="none" stroke="#ef7c6e" stroke-width="11" stroke-linecap="round">
    <path d="M60 92 C40 98 30 110 36 124"/>
    <path d="M72 98 C60 108 58 118 64 128"/>
    <path d="M88 102 C84 112 86 122 92 130"/>
    <path d="M100 103 C100 113 100 122 100 130"/>
    <path d="M112 102 C116 112 114 122 108 130"/>
    <path d="M128 98 C140 108 142 118 136 128"/>
    <path d="M140 92 C160 98 170 110 164 124"/>
    <path d="M78 100 C70 112 72 120 78 126"/>
  </g>
  <!-- 吸盤 -->
  <g fill="#ffd1cb">
    <circle cx="40" cy="112" r="3"/><circle cx="60" cy="116" r="3"/><circle cx="88" cy="118" r="3"/>
    <circle cx="112" cy="118" r="3"/><circle cx="140" cy="116" r="3"/><circle cx="160" cy="112" r="3"/>
  </g>
  <!-- あたま: まるく -->
  <path d="M46 78 C46 30 154 30 154 78 C154 96 130 106 100 106 C70 106 46 96 46 78 Z" fill="#f28b7d"/>
  <path d="M62 56 C74 40 126 40 138 56 C126 48 74 48 62 56 Z" fill="#f7a99d" opacity=".9"/>
  <!-- め: 大きく、白目あり -->
  <ellipse cx="80" cy="76" rx="13" ry="14" fill="#fff"/><ellipse cx="120" cy="76" rx="13" ry="14" fill="#fff"/>
  <circle cx="82" cy="79" r="6.5" fill="#333"/><circle cx="122" cy="79" r="6.5" fill="#333"/>
  <circle cx="84.5" cy="76.5" r="2.2" fill="#fff"/><circle cx="124.5" cy="76.5" r="2.2" fill="#fff"/>
  <!-- ほっぺ と くち -->
  <circle cx="64" cy="90" r="5.5" fill="#ffb3aa"/><circle cx="136" cy="90" r="5.5" fill="#ffb3aa"/>
  <path d="M94 93 Q100 98 106 93" fill="none" stroke="#c94a3f" stroke-width="2.5" stroke-linecap="round"/>
</svg>
