<svg xmlns="http://www.w3.org/2000/svg" viewBox="0 0 200 140">
  <rect x="0" y="122" width="200" height="6" fill="#9e9e9e"/>
  <path d="M6 100 C10 70 50 46 100 44 H196 V112 H6 Z" fill="#fff"/>
  <path d="M6 100 C10 70 50 46 100 44 H196 V56 H100 C60 58 26 76 20 100 Z" fill="#f5f5f5"/>
  <path d="M34 72 C46 60 70 54 96 54 H100 V70 H30 Z" fill="#bfe3f7"/>
  <g fill="#bfe3f7"><rect x="112" y="60" width="18" height="14" rx="3"/><rect x="138" y="60" width="18" height="14" rx="3"/><rect x="164" y="60" width="18" height="14" rx="3"/></g>
  <path d="M8 96 C14 80 40 78 100 78 H196 V90 H100 C40 90 16 92 8 100 Z" fill="#1976d2"/>
  <rect x="6" y="102" width="190" height="10" fill="#e0e0e0"/>
  <circle cx="60" cy="114" r="10" fill="#333"/><circle cx="90" cy="114" r="10" fill="#333"/>
  <circle cx="140" cy="114" r="10" fill="#333"/><circle cx="170" cy="114" r="10" fill="#333"/>
</svg>
